<svg width="48" height="48" viewBox="0 0 48 48" fill="none" xmlns="http://www.w3.org/2000/svg">
<path d="M7.1998 2.40002C6.56329 2.40002 5.95284 2.65288 5.50275 3.10297C5.05266 3.55306 4.7998 4.1635 4.7998 4.80002C4.7998 5.43654 5.05266 6.04699 5.50275 6.49708C5.95284 6.94717 6.56329 7.20002 7.1998 7.20002H10.1278L10.8598 10.1328C10.8671 10.1666 10.8751 10.2002 10.8838 10.2336L14.143 23.2656L11.9998 25.4064C8.9758 28.4304 11.1166 33.6 15.3934 33.6H35.9998C36.6363 33.6 37.2468 33.3472 37.6969 32.8971C38.1469 32.447 38.3998 31.8365 38.3998 31.2C38.3998 30.5635 38.1469 29.9531 37.6969 29.503C37.2468 29.0529 36.6363 28.8 35.9998 28.8H15.3934L17.7934 26.4H33.5998C34.0454 26.3998 34.4821 26.2755 34.8611 26.0411C35.24 25.8067 35.5462 25.4714 35.7454 25.0728L42.9454 10.6728C43.1282 10.307 43.2145 9.90056 43.1961 9.49204C43.1777 9.08351 43.0552 8.68647 42.8403 8.33857C42.6253 7.99067 42.3251 7.70347 41.968 7.50421C41.6108 7.30495 41.2087 7.20024 40.7998 7.20002H15.0718L14.3278 4.21682C14.1978 3.69783 13.8981 3.23717 13.4763 2.908C13.0545 2.57883 12.5348 2.40004 11.9998 2.40002H7.1998ZM38.3998 39.6C38.3998 40.5548 38.0205 41.4705 37.3454 42.1456C36.6703 42.8207 35.7546 43.2 34.7998 43.2C33.845 43.2 32.9294 42.8207 32.2542 42.1456C31.5791 41.4705 31.1998 40.5548 31.1998 39.6C31.1998 38.6452 31.5791 37.7296 32.2542 37.0544C32.9294 36.3793 33.845 36 34.7998 36C35.7546 36 36.6703 36.3793 37.3454 37.0544C38.0205 37.7296 38.3998 38.6452 38.3998 39.6ZM15.5998 43.2C16.5546 43.2 17.4703 42.8207 18.1454 42.1456C18.8205 41.4705 19.1998 40.5548 19.1998 39.6C19.1998 38.6452 18.8205 37.7296 18.1454 37.0544C17.4703 36.3793 16.5546 36 15.5998 36C14.645 36 13.7294 36.3793 13.0542 37.0544C12.3791 37.7296 11.9998 38.6452 11.9998 39.6C11.9998 40.5548 12.3791 41.4705 13.0542 42.1456C13.7294 42.8207 14.645 43.2 15.5998 43.2Z" fill="#7E3AF2"/>
</svg>
