<svg width="46" height="46" viewBox="0 0 46 46" fill="none" xmlns="http://www.w3.org/2000/svg">
<path fill-rule="evenodd" clip-rule="evenodd" d="M23.0001 41.4C27.8801 41.4 32.5602 39.4614 36.0109 36.0107C39.4615 32.5601 41.4001 27.88 41.4001 23C41.4001 18.12 39.4615 13.4399 36.0109 9.98921C32.5602 6.53854 27.8801 4.59998 23.0001 4.59998C18.1201 4.59998 13.44 6.53854 9.98933 9.98921C6.53866 13.4399 4.6001 18.12 4.6001 23C4.6001 27.88 6.53866 32.5601 9.98933 36.0107C13.44 39.4614 18.1201 41.4 23.0001 41.4ZM31.5262 20.0261C31.9452 19.5923 32.177 19.0113 32.1717 18.4083C32.1665 17.8052 31.9246 17.2283 31.4982 16.8019C31.0717 16.3755 30.4949 16.1336 29.8918 16.1283C29.2888 16.1231 28.7078 16.3549 28.274 16.7739L20.7001 24.3478L17.7262 21.3739C17.2924 20.9549 16.7114 20.7231 16.1084 20.7283C15.5053 20.7336 14.9285 20.9755 14.502 21.4019C14.0756 21.8283 13.8337 22.4052 13.8284 23.0083C13.8232 23.6113 14.055 24.1923 14.474 24.6261L19.074 29.2261C19.5053 29.6573 20.0902 29.8995 20.7001 29.8995C21.31 29.8995 21.8949 29.6573 22.3262 29.2261L31.5262 20.0261Z" fill="#7E3AF2"/>
</svg>
