<svg width="48" height="48" viewBox="0 0 48 48" fill="none" xmlns="http://www.w3.org/2000/svg">
<path fill-rule="evenodd" clip-rule="evenodd" d="M4.7998 12C4.7998 10.7269 5.30552 9.50601 6.20569 8.60584C7.10587 7.70566 8.32677 7.19995 9.5998 7.19995H38.3998C39.6728 7.19995 40.8937 7.70566 41.7939 8.60584C42.6941 9.50601 43.1998 10.7269 43.1998 12V16.8C43.1998 18.073 42.6941 19.2939 41.7939 20.1941C40.8937 21.0942 39.6728 21.6 38.3998 21.6H9.5998C8.32677 21.6 7.10587 21.0942 6.20569 20.1941C5.30552 19.2939 4.7998 18.073 4.7998 16.8V12ZM38.3998 14.4C38.3998 15.0365 38.1469 15.6469 37.6969 16.097C37.2468 16.5471 36.6363 16.8 35.9998 16.8C35.3633 16.8 34.7528 16.5471 34.3027 16.097C33.8527 15.6469 33.5998 15.0365 33.5998 14.4C33.5998 13.7634 33.8527 13.153 34.3027 12.7029C34.7528 12.2528 35.3633 12 35.9998 12C36.6363 12 37.2468 12.2528 37.6969 12.7029C38.1469 13.153 38.3998 13.7634 38.3998 14.4ZM4.7998 31.1999C4.7998 29.9269 5.30552 28.706 6.20569 27.8058C7.10587 26.9057 8.32677 26.4 9.5998 26.4H38.3998C39.6728 26.4 40.8937 26.9057 41.7939 27.8058C42.6941 28.706 43.1998 29.9269 43.1998 31.1999V36C43.1998 37.273 42.6941 38.4939 41.7939 39.3941C40.8937 40.2942 39.6728 40.7999 38.3998 40.7999H9.5998C8.32677 40.7999 7.10587 40.2942 6.20569 39.3941C5.30552 38.4939 4.7998 37.273 4.7998 36V31.1999ZM38.3998 33.5999C38.3998 34.2365 38.1469 34.8469 37.6969 35.297C37.2468 35.7471 36.6363 36 35.9998 36C35.3633 36 34.7528 35.7471 34.3027 35.297C33.8527 34.8469 33.5998 34.2365 33.5998 33.5999C33.5998 32.9634 33.8527 32.353 34.3027 31.9029C34.7528 31.4528 35.3633 31.1999 35.9998 31.1999C36.6363 31.1999 37.2468 31.4528 37.6969 31.9029C38.1469 32.353 38.3998 32.9634 38.3998 33.5999Z" fill="#7E3AF2"/>
</svg>
