<svg width="156" height="36" viewBox="0 0 156 36" fill="none" xmlns="http://www.w3.org/2000/svg">
<mask id="mask0_8_5206" style="mask-type:alpha" maskUnits="userSpaceOnUse" x="0" y="1" width="30" height="34">
<path d="M12.0589 2.44621C13.8053 1.43793 15.9569 1.43793 17.7033 2.44621L26.94 7.77901C28.6864 8.78728 29.7622 10.6507 29.7622 12.6672V23.3328C29.7622 25.3494 28.6864 27.2127 26.94 28.221L17.7033 33.5538C15.9569 34.5621 13.8053 34.5621 12.0589 33.5538L2.8222 28.221C1.07582 27.2127 0 25.3494 0 23.3328V12.6672C0 10.6507 1.07582 8.78729 2.8222 7.77901L12.0589 2.44621Z" fill="#C4C4C4"/>
</mask>
<g mask="url(#mask0_8_5206)">
<path d="M14.877 0.53595L31.1888 9.95359L22.9339 14.3983L19.5242 12.5385L16.4244 12.8485L8.67499 10.0587L6.81512 12.5385L5.88519 13.7784L4.02533 12.5385L-1.43487 9.95359L14.877 0.53595Z" fill="url(#paint0_linear_8_5206)"/>
<path d="M-0.128418 10.087L6.19948 13.1555L9.9192 22.1449L9.9192 22.4549L11.1591 24.0048L16.7387 28.3444L14.8807 36.0835L-0.128418 27.418L-0.128418 10.087Z" fill="url(#paint1_linear_8_5206)"/>
<path d="M19.8341 22.4544L23.8638 13.775L29.886 10.0888L29.886 27.4198L14.8769 36.0854L14.5645 28.3439L19.8341 22.4544Z" fill="url(#paint2_linear_8_5206)"/>
<path d="M14.8763 7.58276C12.3115 7.58276 9.9741 8.55624 8.21323 10.1538L9.6428 22.4616C10.0337 22.642 12.2759 23.3916 12.7065 23.3916H15.8062C16.3541 23.3916 20.1459 22.2238 20.1459 22.7716L19.8359 21.4696C19.8359 22.0175 19.3919 22.4616 18.844 22.4616H10.9086C10.3608 22.4616 9.91667 22.0175 9.91667 21.4696V16.6676C9.91667 16.237 9.82323 15.8116 9.6428 15.4206L8.21323 10.1538C6.61563 11.9146 4.95703 14.9372 4.95703 17.502C4.95703 22.9804 9.39799 27.4213 14.8763 27.4213C20.3546 27.4213 24.7956 22.9804 24.7956 17.502C24.7956 12.0237 20.3546 7.58276 14.8763 7.58276Z" fill="url(#paint3_linear_8_5206)"/>
<path d="M13.0393 11.7229C13.2583 11.6384 13.4926 11.6052 13.7246 11.6259C13.9565 11.6465 14.18 11.7205 14.3781 11.8422C14.5761 11.9639 14.7436 12.1301 14.8678 12.3282C14.9921 12.5263 15.0697 12.7512 15.095 12.9857C15.2751 14.6756 14.8956 16.3867 14.016 17.8503C13.1364 19.314 11.8066 20.4474 10.2352 21.0726L9.1231 18.1972C10.0618 17.8234 10.8568 17.1474 11.3846 16.2744C11.9124 15.4014 12.1433 14.3804 12.0415 13.3701C12.0044 13.0251 12.0821 12.6757 12.2624 12.3773C12.4427 12.0789 12.7152 11.8486 13.0367 11.7228L13.0393 11.7229Z" fill="#9C5AFF"/>
<path d="M13.0268 11.7276C12.6469 11.8789 12.3397 12.1761 12.1726 12.5538C12.0055 12.9315 11.9922 13.3587 12.1357 13.7416L15.3857 22.4085C15.5294 22.7913 15.818 23.0984 16.1882 23.2621C16.5583 23.4259 16.9797 23.433 17.3596 23.2819C17.5478 23.207 17.7201 23.0956 17.8667 22.9538C18.0134 22.8121 18.1315 22.6429 18.2142 22.4558C18.297 22.2688 18.3428 22.0676 18.3491 21.8637C18.3553 21.6599 18.3219 21.4574 18.2508 21.2678L15.0007 12.601C14.9297 12.4113 14.8223 12.2383 14.6846 12.0918C14.5469 11.9452 14.3817 11.828 14.1984 11.7469C14.0151 11.6658 13.8173 11.6224 13.6163 11.619C13.4152 11.6157 13.2149 11.6526 13.0268 11.7276Z" fill="#9C5AFF"/>
<path d="M17.3452 23.2842C17.1263 23.3687 16.892 23.402 16.6601 23.3814C16.4282 23.3607 16.2047 23.2868 16.0067 23.1652C15.8086 23.0436 15.6411 22.8774 15.5169 22.6793C15.3927 22.4813 15.315 22.2565 15.2897 22.022C15.1098 20.332 15.4894 18.621 16.3689 17.1573C17.2484 15.6936 18.5781 14.56 20.1493 13.9344L21.2614 16.8109C20.3228 17.1848 19.5277 17.8608 18.9999 18.7338C18.4722 19.6067 18.2412 20.6278 18.3431 21.6381C18.3796 21.9832 18.3013 22.3325 18.1206 22.6307C17.9398 22.9289 17.6669 23.1588 17.3452 23.2842Z" fill="#9C5AFF"/>
</g>
<path d="M43.4838 27V9.54545H46.6457V24.3494H54.3332V27H43.4838ZM60.7082 27.2642C59.8787 27.2642 59.1315 27.1165 58.4668 26.821C57.8077 26.5199 57.2849 26.0767 56.8986 25.4915C56.5179 24.9062 56.3275 24.1847 56.3275 23.3267C56.3275 22.5881 56.4639 21.9773 56.7366 21.4943C57.0094 21.0114 57.3815 20.625 57.8531 20.3352C58.3247 20.0455 58.856 19.8267 59.4469 19.679C60.0435 19.5256 60.6599 19.4148 61.2963 19.3466C62.0633 19.267 62.6855 19.196 63.1628 19.1335C63.64 19.0653 63.9866 18.9631 64.2025 18.8267C64.4241 18.6847 64.5349 18.4659 64.5349 18.1705V18.1193C64.5349 17.4773 64.3446 16.9801 63.9639 16.6278C63.5832 16.2756 63.0349 16.0994 62.319 16.0994C61.5633 16.0994 60.9639 16.2642 60.5207 16.5938C60.0832 16.9233 59.7878 17.3125 59.6344 17.7614L56.7537 17.3523C56.981 16.5568 57.356 15.892 57.8787 15.358C58.4014 14.8182 59.0406 14.4148 59.7963 14.1477C60.552 13.875 61.3872 13.7386 62.302 13.7386C62.9327 13.7386 63.5605 13.8125 64.1855 13.9602C64.8105 14.108 65.3815 14.3523 65.8986 14.6932C66.4156 15.0284 66.8304 15.4858 67.1429 16.0653C67.4611 16.6449 67.6202 17.3693 67.6202 18.2386V27H64.6543V25.2017H64.552C64.3645 25.5653 64.1003 25.9062 63.7594 26.2244C63.4241 26.5369 63.0008 26.7898 62.4895 26.983C61.9838 27.1705 61.39 27.2642 60.7082 27.2642ZM61.5094 24.9972C62.1287 24.9972 62.6656 24.875 63.1202 24.6307C63.5747 24.3807 63.9241 24.0511 64.1685 23.642C64.4185 23.233 64.5435 22.7869 64.5435 22.304V20.7614C64.4469 20.8409 64.2821 20.9148 64.0491 20.983C63.8219 21.0511 63.5662 21.1108 63.2821 21.1619C62.998 21.2131 62.7168 21.2585 62.4383 21.2983C62.1599 21.3381 61.9185 21.3722 61.7139 21.4006C61.2537 21.4631 60.8418 21.5653 60.4781 21.7074C60.1145 21.8494 59.8275 22.0483 59.6173 22.304C59.4071 22.554 59.302 22.8778 59.302 23.2756C59.302 23.8438 59.5094 24.2727 59.9241 24.5625C60.3389 24.8523 60.8673 24.9972 61.5094 24.9972ZM73.8077 19.3295V27H70.7224V13.9091H73.6713V16.1335H73.8247C74.1258 15.4006 74.606 14.8182 75.265 14.3864C75.9298 13.9545 76.7508 13.7386 77.7281 13.7386C78.6315 13.7386 79.4185 13.9318 80.0889 14.3182C80.765 14.7045 81.2878 15.2642 81.6571 15.9972C82.0321 16.7301 82.2168 17.6193 82.2111 18.6648V27H79.1258V19.142C79.1258 18.267 78.8986 17.5824 78.444 17.0881C77.9952 16.5937 77.373 16.3466 76.5775 16.3466C76.0378 16.3466 75.5577 16.4659 75.1372 16.7045C74.7224 16.9375 74.3957 17.2756 74.1571 17.7188C73.9241 18.1619 73.8077 18.6989 73.8077 19.3295ZM90.2054 27.2301C89.177 27.2301 88.2565 26.9659 87.444 26.4375C86.6315 25.9091 85.9895 25.142 85.5179 24.1364C85.0463 23.1307 84.8105 21.9091 84.8105 20.4716C84.8105 19.017 85.0491 17.7898 85.5264 16.7898C86.0094 15.7841 86.6599 15.0256 87.4781 14.5142C88.2963 13.9972 89.2082 13.7386 90.2139 13.7386C90.981 13.7386 91.6116 13.8693 92.106 14.1307C92.6003 14.3864 92.9923 14.696 93.2821 15.0597C93.5719 15.4176 93.7963 15.7557 93.9554 16.0739H94.0832V9.54545H97.177V27H94.1429V24.9375H93.9554C93.7963 25.2557 93.5662 25.5937 93.265 25.9517C92.9639 26.304 92.5662 26.6051 92.0719 26.8551C91.5775 27.1051 90.9554 27.2301 90.2054 27.2301ZM91.0662 24.6989C91.7196 24.6989 92.2764 24.5227 92.7366 24.1705C93.1969 23.8125 93.5463 23.3153 93.7849 22.679C94.0236 22.0426 94.1429 21.3011 94.1429 20.4545C94.1429 19.608 94.0236 18.8722 93.7849 18.2472C93.552 17.6222 93.2054 17.1364 92.7452 16.7898C92.2906 16.4432 91.731 16.2699 91.0662 16.2699C90.3787 16.2699 89.8048 16.4489 89.3446 16.8068C88.8844 17.1648 88.5378 17.6591 88.3048 18.2898C88.0719 18.9205 87.9554 19.642 87.9554 20.4545C87.9554 21.2727 88.0719 22.0028 88.3048 22.6449C88.5435 23.2812 88.8929 23.7841 89.3531 24.1534C89.819 24.517 90.39 24.6989 91.0662 24.6989ZM103.166 27L99.4675 13.9091H102.612L104.913 23.1136H105.033L107.385 13.9091H110.496L112.848 23.0625H112.976L115.243 13.9091H118.396L114.689 27H111.476L109.021 18.1534H108.842L106.388 27H103.166ZM120.551 27V13.9091H123.636V27H120.551ZM122.102 12.0511C121.613 12.0511 121.193 11.8892 120.84 11.5653C120.488 11.2358 120.312 10.8409 120.312 10.3807C120.312 9.91477 120.488 9.51989 120.84 9.19602C121.193 8.86648 121.613 8.7017 122.102 8.7017C122.596 8.7017 123.016 8.86648 123.363 9.19602C123.715 9.51989 123.891 9.91477 123.891 10.3807C123.891 10.8409 123.715 11.2358 123.363 11.5653C123.016 11.8892 122.596 12.0511 122.102 12.0511ZM129.894 19.3295V27H126.808V13.9091H129.757V16.1335H129.911C130.212 15.4006 130.692 14.8182 131.351 14.3864C132.016 13.9545 132.837 13.7386 133.814 13.7386C134.717 13.7386 135.504 13.9318 136.175 14.3182C136.851 14.7045 137.374 15.2642 137.743 15.9972C138.118 16.7301 138.303 17.6193 138.297 18.6648V27H135.212V19.142C135.212 18.267 134.985 17.5824 134.53 17.0881C134.081 16.5937 133.459 16.3466 132.663 16.3466C132.124 16.3466 131.644 16.4659 131.223 16.7045C130.808 16.9375 130.482 17.2756 130.243 17.7188C130.01 18.1619 129.894 18.6989 129.894 19.3295ZM146.291 27.2301C145.263 27.2301 144.342 26.9659 143.53 26.4375C142.717 25.9091 142.075 25.142 141.604 24.1364C141.132 23.1307 140.896 21.9091 140.896 20.4716C140.896 19.017 141.135 17.7898 141.612 16.7898C142.095 15.7841 142.746 15.0256 143.564 14.5142C144.382 13.9972 145.294 13.7386 146.3 13.7386C147.067 13.7386 147.698 13.8693 148.192 14.1307C148.686 14.3864 149.078 14.696 149.368 15.0597C149.658 15.4176 149.882 15.7557 150.041 16.0739H150.169V9.54545H153.263V27H150.229V24.9375H150.041C149.882 25.2557 149.652 25.5937 149.351 25.9517C149.05 26.304 148.652 26.6051 148.158 26.8551C147.663 27.1051 147.041 27.2301 146.291 27.2301ZM147.152 24.6989C147.806 24.6989 148.362 24.5227 148.823 24.1705C149.283 23.8125 149.632 23.3153 149.871 22.679C150.11 22.0426 150.229 21.3011 150.229 20.4545C150.229 19.608 150.11 18.8722 149.871 18.2472C149.638 17.6222 149.291 17.1364 148.831 16.7898C148.377 16.4432 147.817 16.2699 147.152 16.2699C146.465 16.2699 145.891 16.4489 145.431 16.8068C144.97 17.1648 144.624 17.6591 144.391 18.2898C144.158 18.9205 144.041 19.642 144.041 20.4545C144.041 21.2727 144.158 22.0028 144.391 22.6449C144.629 23.2812 144.979 23.7841 145.439 24.1534C145.905 24.517 146.476 24.6989 147.152 24.6989Z" fill="#111928"/>
<defs>
<linearGradient id="paint0_linear_8_5206" x1="14.5646" y1="1.99926" x2="14.282" y2="13.3216" gradientUnits="userSpaceOnUse">
<stop stop-color="#4E00D3"/>
<stop offset="1" stop-color="#7A36F0"/>
</linearGradient>
<linearGradient id="paint1_linear_8_5206" x1="14.8788" y1="24.9347" x2="5.90321" y2="14.173" gradientUnits="userSpaceOnUse">
<stop stop-color="#5508D8"/>
<stop offset="1" stop-color="#7935EF"/>
</linearGradient>
<linearGradient id="paint2_linear_8_5206" x1="14.8744" y1="26.1741" x2="23.4474" y2="14.715" gradientUnits="userSpaceOnUse">
<stop stop-color="#5205D6"/>
<stop offset="1" stop-color="#7A35F0"/>
</linearGradient>
<linearGradient id="paint3_linear_8_5206" x1="14.8763" y1="7.58276" x2="14.8763" y2="27.4213" gradientUnits="userSpaceOnUse">
<stop stop-color="#7935EF"/>
<stop offset="1" stop-color="#6117E0"/>
</linearGradient>
</defs>
</svg>
