<svg width="48" height="48" viewBox="0 0 48 48" fill="none" xmlns="http://www.w3.org/2000/svg">
<path d="M21.5999 14.4C21.5999 16.3095 20.8413 18.1409 19.4911 19.4911C18.1408 20.8414 16.3095 21.6 14.3999 21.6C12.4903 21.6 10.659 20.8414 9.30873 19.4911C7.95847 18.1409 7.1999 16.3095 7.1999 14.4C7.1999 12.4904 7.95847 10.659 9.30873 9.30878C10.659 7.95852 12.4903 7.19995 14.3999 7.19995C16.3095 7.19995 18.1408 7.95852 19.4911 9.30878C20.8413 10.659 21.5999 12.4904 21.5999 14.4ZM40.7999 14.4C40.7999 15.3455 40.6137 16.2817 40.2518 17.1553C39.89 18.0288 39.3597 18.8225 38.6911 19.4911C38.0225 20.1597 37.2288 20.6901 36.3552 21.0519C35.4817 21.4137 34.5454 21.6 33.5999 21.6C32.6544 21.6 31.7181 21.4137 30.8446 21.0519C29.971 20.6901 29.1773 20.1597 28.5087 19.4911C27.8401 18.8225 27.3098 18.0288 26.948 17.1553C26.5861 16.2817 26.3999 15.3455 26.3999 14.4C26.3999 12.4904 27.1585 10.659 28.5087 9.30878C29.859 7.95852 31.6903 7.19995 33.5999 7.19995C35.5095 7.19995 37.3408 7.95852 38.6911 9.30878C40.0413 10.659 40.7999 12.4904 40.7999 14.4ZM31.0319 40.7999C31.1423 40.0151 31.1999 39.216 31.1999 38.4C31.2055 34.6292 29.9369 30.9672 27.5999 28.0079C29.4241 26.9547 31.4934 26.4003 33.5998 26.4003C35.7062 26.4002 37.7755 26.9547 39.5998 28.0079C41.424 29.0611 42.9389 30.5759 43.9921 32.4001C45.0453 34.2242 45.5998 36.2935 45.5999 38.4V40.7999H31.0319ZM14.3999 26.4C17.5825 26.4 20.6347 27.6642 22.8852 29.9147C25.1356 32.1651 26.3999 35.2174 26.3999 38.4V40.7999H2.3999V38.4C2.3999 35.2174 3.66418 32.1651 5.91462 29.9147C8.16506 27.6642 11.2173 26.4 14.3999 26.4Z" fill="#7E3AF2"/>
</svg>
