<svg width="39" height="39" viewBox="0 0 39 39" fill="none" xmlns="http://www.w3.org/2000/svg">
<path fill-rule="evenodd" clip-rule="evenodd" d="M19.2 38.4C24.2922 38.4 29.1758 36.3772 32.7765 32.7765C36.3772 29.1758 38.4 24.2922 38.4 19.2C38.4 14.1078 36.3772 9.22425 32.7765 5.62355C29.1758 2.02285 24.2922 0 19.2 0C14.1078 0 9.22425 2.02285 5.62355 5.62355C2.02285 9.22425 0 14.1078 0 19.2C0 24.2922 2.02285 29.1758 5.62355 32.7765C9.22425 36.3772 14.1078 38.4 19.2 38.4ZM5.5968 14.4648C6.4879 11.9129 8.07789 9.66265 10.1856 7.9704C10.8288 8.952 11.9376 9.6 13.2 9.6C14.1548 9.6 15.0705 9.97928 15.7456 10.6544C16.4207 11.3295 16.8 12.2452 16.8 13.2V14.4C16.8 15.673 17.3057 16.8939 18.2059 17.7941C19.1061 18.6943 20.327 19.2 21.6 19.2C22.873 19.2 24.0939 18.6943 24.9941 17.7941C25.8943 16.8939 26.4 15.673 26.4 14.4C26.3996 13.3258 26.7596 12.2825 27.4222 11.4371C28.0849 10.5917 29.012 9.99299 30.0552 9.7368C32.3455 12.3568 33.6054 15.7201 33.6 19.2C33.6 20.016 33.5328 20.82 33.4008 21.6H31.2C29.927 21.6 28.7061 22.1057 27.8059 23.0059C26.9057 23.9061 26.4 25.127 26.4 26.4V31.6728C24.2119 32.9388 21.7279 33.6037 19.2 33.6V28.8C19.2 27.527 18.6943 26.3061 17.7941 25.4059C16.8939 24.5057 15.673 24 14.4 24C13.127 24 11.9061 23.4943 11.0059 22.5941C10.1057 21.6939 9.6 20.473 9.6 19.2C9.60042 18.0648 9.1985 16.9662 8.46559 16.0993C7.73269 15.2323 6.71625 14.6532 5.5968 14.4648Z" fill="#7E3AF2"/>
</svg>
